<?xml version="1.0" encoding="UTF-8"?>
<!DOCTYPE svg PUBLIC "-//W3C//DTD SVG 1.1//EN" "http://www.w3.org/Graphics/SVG/1.1/DTD/svg11.dtd">
<svg xmlns="http://www.w3.org/2000/svg" version="1.1" width="100px" height="90px" style="shape-rendering:geometricPrecision; text-rendering:geometricPrecision; image-rendering:optimizeQuality; fill-rule:evenodd; clip-rule:evenodd" xmlns:xlink="http://www.w3.org/1999/xlink">
<g><path style="opacity:1" fill="#6eccd8" d="M 273.5,61.5 C 265.657,60.7487 257.657,60.082 249.5,59.5C 243.076,59.4703 236.743,60.1369 230.5,61.5C 228.5,61.5 226.5,61.5 224.5,61.5C 238.211,57.8177 252.211,56.9844 266.5,59C 269.104,59.3903 271.438,60.2237 273.5,61.5 Z"/></g>
<g><path style="opacity:1" fill="#26c0d9" d="M 273.5,61.5 C 275.553,61.4021 277.22,62.0687 278.5,63.5C 277.263,65.0968 275.596,66.2635 273.5,67C 272.207,67.49 270.873,67.6567 269.5,67.5C 268.833,67.5 268.167,67.5 267.5,67.5C 266.089,65.461 264.089,64.461 261.5,64.5C 261.082,63.7784 260.416,63.2784 259.5,63C 251.118,62.1971 242.785,62.3638 234.5,63.5C 232.974,63.0057 231.641,62.339 230.5,61.5C 236.743,60.1369 243.076,59.4703 249.5,59.5C 257.657,60.082 265.657,60.7487 273.5,61.5 Z"/></g>
<g><path style="opacity:1" fill="#77d2df" d="M 255.5,64.5 C 257.5,64.5 259.5,64.5 261.5,64.5C 264.089,64.461 266.089,65.461 267.5,67.5C 263.431,66.3113 259.431,65.3113 255.5,64.5 Z"/></g>
<g><path style="opacity:1" fill="#32bfd6" d="M 224.5,61.5 C 226.5,61.5 228.5,61.5 230.5,61.5C 231.641,62.339 232.974,63.0057 234.5,63.5C 242.785,62.3638 251.118,62.1971 259.5,63C 260.416,63.2784 261.082,63.7784 261.5,64.5C 259.5,64.5 257.5,64.5 255.5,64.5C 251.833,64.5 248.167,64.5 244.5,64.5C 236.618,63.9433 228.951,64.9433 221.5,67.5C 220.287,67.7472 219.62,68.4138 219.5,69.5C 215.308,69.8858 211.141,70.5525 207,71.5C 204.37,71.536 201.87,71.036 199.5,70C 200.056,69.6174 200.389,69.1174 200.5,68.5C 208.208,65.2389 216.208,62.9056 224.5,61.5 Z"/></g>
<g><path style="opacity:1" fill="#70cedc" d="M 244.5,64.5 C 236.26,65.9704 227.926,67.6371 219.5,69.5C 219.62,68.4138 220.287,67.7472 221.5,67.5C 228.951,64.9433 236.618,63.9433 244.5,64.5 Z"/></g>
<g><path style="opacity:0.718" fill="#abe5f1" d="M 286.5,68.5 C 287.906,68.9731 288.573,69.9731 288.5,71.5C 287.094,71.0269 286.427,70.0269 286.5,68.5 Z"/></g>
<g><path style="opacity:1" fill="#5ac7da" d="M 200.5,68.5 C 200.389,69.1174 200.056,69.6174 199.5,70C 201.87,71.036 204.37,71.536 207,71.5C 211.141,70.5525 215.308,69.8858 219.5,69.5C 209.316,73.3407 198.983,77.0074 188.5,80.5C 190.086,78.0553 192.419,76.5553 195.5,76C 194.833,75.6667 194.167,75.3333 193.5,75C 195.715,73.9562 198.048,73.2895 200.5,73C 197.001,72.8413 193.667,72.6746 190.5,72.5C 193.54,70.6541 196.873,69.3208 200.5,68.5 Z"/></g>
<g><path style="opacity:1" fill="#6ecbdb" d="M 274.5,70.5 C 277.834,71.4527 280.834,72.9527 283.5,75C 282.833,75.3333 282.167,75.6667 281.5,76C 284.964,79.8117 286.297,84.3117 285.5,89.5C 283.663,82.1649 279.996,75.8316 274.5,70.5 Z"/></g>
<g><path style="opacity:1" fill="#3bc4d8" d="M 278.5,63.5 C 281.704,64.3833 284.371,66.0499 286.5,68.5C 286.427,70.0269 287.094,71.0269 288.5,71.5C 290.588,73.3356 291.921,75.6689 292.5,78.5C 290.657,79.246 289.324,80.5794 288.5,82.5C 288.148,90.8755 287.148,98.8755 285.5,106.5C 285.5,106.167 285.5,105.833 285.5,105.5C 285.5,100.167 285.5,94.8333 285.5,89.5C 286.297,84.3117 284.964,79.8117 281.5,76C 282.167,75.6667 282.833,75.3333 283.5,75C 280.834,72.9527 277.834,71.4527 274.5,70.5C 272.632,69.7368 270.965,68.7368 269.5,67.5C 270.873,67.6567 272.207,67.49 273.5,67C 275.596,66.2635 277.263,65.0968 278.5,63.5 Z"/></g>
<g><path style="opacity:1" fill="#3ec2d8" d="M 190.5,72.5 C 193.667,72.6746 197.001,72.8413 200.5,73C 198.048,73.2895 195.715,73.9562 193.5,75C 194.167,75.3333 194.833,75.6667 195.5,76C 192.419,76.5553 190.086,78.0553 188.5,80.5C 183.082,83.5365 177.416,86.2032 171.5,88.5C 167.637,89.3458 163.804,90.3458 160,91.5C 158.833,91.1667 157.667,90.8333 156.5,90.5C 158.677,88.242 161.343,86.742 164.5,86C 163.944,85.6174 163.611,85.1174 163.5,84.5C 172.089,79.7084 181.089,75.7084 190.5,72.5 Z"/></g>
<g><path style="opacity:1" fill="#57c6d8" d="M 163.5,84.5 C 163.611,85.1174 163.944,85.6174 164.5,86C 161.343,86.742 158.677,88.242 156.5,90.5C 157.667,90.8333 158.833,91.1667 160,91.5C 163.804,90.3458 167.637,89.3458 171.5,88.5C 166.484,91.6745 161.151,94.3412 155.5,96.5C 155.5,95.1667 155.5,93.8333 155.5,92.5C 153.833,92.5 152.167,92.5 150.5,92.5C 150.725,96.0562 149.892,96.3895 148,93.5C 147.298,94.7948 146.631,96.1281 146,97.5C 144.951,96.4829 143.784,96.3162 142.5,97C 142.957,97.414 143.291,97.914 143.5,98.5C 142.5,99.1667 141.5,99.8333 140.5,100.5C 141,100.833 141.5,101.167 142,101.5C 145.789,99.837 149.622,98.5037 153.5,97.5C 148.335,101.586 142.668,104.92 136.5,107.5C 137.893,105.716 138.393,103.716 138,101.5C 135.619,102.435 133.119,102.768 130.5,102.5C 140.692,95.2334 151.692,89.2334 163.5,84.5 Z"/></g>
<g><path style="opacity:1" fill="#36c2da" d="M 292.5,78.5 C 297.975,91.2915 297.642,103.958 291.5,116.5C 289.229,117.684 286.895,118.684 284.5,119.5C 285.295,115.215 285.628,110.881 285.5,106.5C 287.148,98.8755 288.148,90.8755 288.5,82.5C 289.324,80.5794 290.657,79.246 292.5,78.5 Z"/></g>
<g><path style="opacity:1" fill="#28bfda" d="M 155.5,96.5 C 155.158,97.3382 154.492,97.6716 153.5,97.5C 149.622,98.5037 145.789,99.837 142,101.5C 141.5,101.167 141,100.833 140.5,100.5C 141.5,99.8333 142.5,99.1667 143.5,98.5C 143.291,97.914 142.957,97.414 142.5,97C 143.784,96.3162 144.951,96.4829 146,97.5C 146.631,96.1281 147.298,94.7948 148,93.5C 149.892,96.3895 150.725,96.0562 150.5,92.5C 152.167,92.5 153.833,92.5 155.5,92.5C 155.5,93.8333 155.5,95.1667 155.5,96.5 Z"/></g>
<g><path style="opacity:1" fill="#47c4d8" d="M 136.5,107.5 C 133.709,109.735 130.709,111.735 127.5,113.5C 127.182,111.182 125.848,109.848 123.5,109.5C 121.354,110.894 119.021,111.56 116.5,111.5C 120.624,107.719 125.291,104.719 130.5,102.5C 133.119,102.768 135.619,102.435 138,101.5C 138.393,103.716 137.893,105.716 136.5,107.5 Z"/></g>
<g><path style="opacity:1" fill="#41c3d9" d="M 127.5,113.5 C 120.68,118.412 113.68,123.078 106.5,127.5C 104.092,128.201 101.758,129.201 99.5,130.5C 96.9731,133.579 93.9731,135.912 90.5,137.5C 90.0296,136.307 89.0296,135.64 87.5,135.5C 85.7927,135.728 84.126,136.062 82.5,136.5C 92.7582,126.704 104.092,118.371 116.5,111.5C 119.021,111.56 121.354,110.894 123.5,109.5C 125.848,109.848 127.182,111.182 127.5,113.5 Z"/></g>
<g><path style="opacity:1" fill="#66c8d9" d="M 285.5,105.5 C 285.5,105.833 285.5,106.167 285.5,106.5C 285.628,110.881 285.295,115.215 284.5,119.5C 286.895,118.684 289.229,117.684 291.5,116.5C 290.726,120.375 288.392,122.708 284.5,123.5C 282.5,122.833 281.167,121.5 280.5,119.5C 282.24,114.722 283.907,110.055 285.5,105.5 Z"/></g>
<g><path style="opacity:1" fill="#6fcdda" d="M 106.5,127.5 C 99.8142,133.516 92.8142,139.182 85.5,144.5C 85.67,143.178 85.3366,142.011 84.5,141C 86.1341,140.506 87.8008,140.34 89.5,140.5C 89.2627,139.209 89.596,138.209 90.5,137.5C 93.9731,135.912 96.9731,133.579 99.5,130.5C 101.758,129.201 104.092,128.201 106.5,127.5 Z"/></g>
<g><path style="opacity:0.933" fill="#8bd5e1" d="M 82.5,136.5 C 81.4154,138.587 79.7488,139.92 77.5,140.5C 78.5846,138.413 80.2512,137.08 82.5,136.5 Z"/></g>
<g><path style="opacity:1" fill="#30c0d8" d="M 90.5,137.5 C 89.596,138.209 89.2627,139.209 89.5,140.5C 87.8008,140.34 86.1341,140.506 84.5,141C 85.3366,142.011 85.67,143.178 85.5,144.5C 82.9267,145.493 80.26,146.326 77.5,147C 77.8333,147.333 78.1667,147.667 78.5,148C 76.8078,149.401 76.1412,151.234 76.5,153.5C 74.5,155.167 72.5,156.833 70.5,158.5C 67.3709,156.168 66.3709,153.168 67.5,149.5C 68.5,147.833 69.8333,146.5 71.5,145.5C 73.0269,145.573 74.0269,144.906 74.5,143.5C 75.1667,142.167 76.1667,141.167 77.5,140.5C 79.7488,139.92 81.4154,138.587 82.5,136.5C 84.126,136.062 85.7927,135.728 87.5,135.5C 89.0296,135.64 90.0296,136.307 90.5,137.5 Z"/></g>
<g><path style="opacity:0.698" fill="#ade1eb" d="M 74.5,143.5 C 74.0269,144.906 73.0269,145.573 71.5,145.5C 71.9731,144.094 72.9731,143.427 74.5,143.5 Z"/></g>
<g><path style="opacity:1" fill="#76d1dd" d="M 85.5,144.5 C 82.8333,147.833 79.8333,150.833 76.5,153.5C 76.1412,151.234 76.8078,149.401 78.5,148C 78.1667,147.667 77.8333,147.333 77.5,147C 80.26,146.326 82.9267,145.493 85.5,144.5 Z"/></g>
<g><path style="opacity:1" fill="#7bcddd" d="M 343.5,155.5 C 343.461,154.417 343.127,153.417 342.5,152.5C 345.272,150.915 345.106,149.915 342,149.5C 340.061,149.954 338.228,150.621 336.5,151.5C 336.414,150.504 336.748,149.671 337.5,149C 340.146,148.503 342.813,148.336 345.5,148.5C 345.59,151.152 344.924,153.485 343.5,155.5 Z"/></g>
<g><path style="opacity:1" fill="#70ceda" d="M 343.5,155.5 C 342.686,159.116 341.352,162.449 339.5,165.5C 339.616,162.14 339.949,158.807 340.5,155.5C 341.5,155.5 342.5,155.5 343.5,155.5 Z"/></g>
<g><path style="opacity:1" fill="#4dc5d9" d="M 67.5,149.5 C 66.3709,153.168 67.3709,156.168 70.5,158.5C 65.5092,164.823 60.1759,170.823 54.5,176.5C 54.67,175.178 54.3366,174.011 53.5,173C 54.7155,170.904 55.5488,171.071 56,173.5C 55.9461,170.809 57.1128,168.976 59.5,168C 57.6226,166.961 55.2893,166.127 52.5,165.5C 56.7949,159.537 61.7949,154.204 67.5,149.5 Z"/></g>
<g><path style="opacity:1" fill="#2ec0da" d="M 343.5,155.5 C 342.5,155.5 341.5,155.5 340.5,155.5C 339.949,158.807 339.616,162.14 339.5,165.5C 338.361,168.918 337.028,172.251 335.5,175.5C 334.167,175.5 332.833,175.5 331.5,175.5C 332.937,170.972 333.604,166.306 333.5,161.5C 337.795,161.721 338.462,160.388 335.5,157.5C 336.156,155.547 336.489,153.547 336.5,151.5C 338.228,150.621 340.061,149.954 342,149.5C 345.106,149.915 345.272,150.915 342.5,152.5C 343.127,153.417 343.461,154.417 343.5,155.5 Z"/></g>
<g><path style="opacity:1" fill="#47c4d8" d="M 189.5,186.5 C 188.924,181.9 189.924,177.734 192.5,174C 191.705,172.418 190.538,172.251 189,173.5C 187.715,173.05 186.548,172.383 185.5,171.5C 184.614,172.325 184.281,173.325 184.5,174.5C 185.5,174.5 186.5,174.5 187.5,174.5C 187.509,176.308 187.009,177.975 186,179.5C 185.878,177.563 185.045,176.23 183.5,175.5C 182.5,175.5 181.5,175.5 180.5,175.5C 180.912,177.973 179.912,179.306 177.5,179.5C 178.401,173.956 180.735,169.123 184.5,165C 187.227,164.182 189.894,164.348 192.5,165.5C 194.191,172.956 193.191,179.956 189.5,186.5 Z"/></g>
<g><path style="opacity:1" fill="#3ac3d6" d="M 336.5,151.5 C 336.489,153.547 336.156,155.547 335.5,157.5C 338.462,160.388 337.795,161.721 333.5,161.5C 333.604,166.306 332.937,170.972 331.5,175.5C 332.833,175.5 334.167,175.5 335.5,175.5C 334.736,178.018 333.736,180.351 332.5,182.5C 332.5,181.167 332.5,179.833 332.5,178.5C 331.167,178.5 329.833,178.5 328.5,178.5C 328.741,175.966 327.741,174.3 325.5,173.5C 328.674,165.818 332.341,158.485 336.5,151.5 Z"/></g>
<g><path style="opacity:1" fill="#40c4d9" d="M 52.5,165.5 C 55.2893,166.127 57.6226,166.961 59.5,168C 57.1128,168.976 55.9461,170.809 56,173.5C 55.5488,171.071 54.7155,170.904 53.5,173C 54.3366,174.011 54.67,175.178 54.5,176.5C 53.5569,179.109 51.8903,181.109 49.5,182.5C 48.1667,181.167 46.8333,181.167 45.5,182.5C 43.9969,181.318 42.3302,180.818 40.5,181C 39.7103,183.996 38.5437,186.829 37,189.5C 35.4167,190.971 33.5834,191.971 31.5,192.5C 37.2942,182.587 44.2942,173.587 52.5,165.5 Z"/></g>
<g><path style="opacity:1" fill="#36c1d9" d="M 325.5,173.5 C 327.741,174.3 328.741,175.966 328.5,178.5C 329.833,178.5 331.167,178.5 332.5,178.5C 332.5,179.833 332.5,181.167 332.5,182.5C 330.896,188.311 328.896,193.978 326.5,199.5C 325.069,199.881 324.236,200.881 324,202.5C 323.722,201.584 323.222,200.918 322.5,200.5C 322.296,197.482 321.963,194.482 321.5,191.5C 319.282,191.614 317.282,192.28 315.5,193.5C 318.325,186.516 321.659,179.849 325.5,173.5 Z"/></g>
<g><path style="opacity:1" fill="#1cc0d7" d="M 189.5,186.5 C 188.5,186.5 187.5,186.5 186.5,186.5C 186.932,189.877 186.265,192.877 184.5,195.5C 182.05,195.126 181.05,193.626 181.5,191C 182.595,187.809 182.595,184.643 181.5,181.5C 182.651,179.675 183.318,177.675 183.5,175.5C 185.045,176.23 185.878,177.563 186,179.5C 187.009,177.975 187.509,176.308 187.5,174.5C 186.5,174.5 185.5,174.5 184.5,174.5C 184.281,173.325 184.614,172.325 185.5,171.5C 186.548,172.383 187.715,173.05 189,173.5C 190.538,172.251 191.705,172.418 192.5,174C 189.924,177.734 188.924,181.9 189.5,186.5 Z"/></g>
<g><path style="opacity:1" fill="#1ebedc" d="M 183.5,175.5 C 183.318,177.675 182.651,179.675 181.5,181.5C 182.595,184.643 182.595,187.809 181.5,191C 181.05,193.626 182.05,195.126 184.5,195.5C 183.84,200.119 182.506,204.452 180.5,208.5C 179.177,204.745 179.51,201.078 181.5,197.5C 181.333,196.833 181.167,196.167 181,195.5C 180.311,196.357 179.478,197.023 178.5,197.5C 177.647,194.522 176.981,191.522 176.5,188.5C 177.265,185.904 177.599,183.237 177.5,180.5C 177.5,180.167 177.5,179.833 177.5,179.5C 179.912,179.306 180.912,177.973 180.5,175.5C 181.5,175.5 182.5,175.5 183.5,175.5 Z"/></g>
<g><path style="opacity:1" fill="#1dbfda" d="M 45.5,182.5 C 45.5,184.167 45.5,185.833 45.5,187.5C 44.5,187.5 43.5,187.5 42.5,187.5C 42.5,188.833 42.5,190.167 42.5,191.5C 41.5,191.5 40.5,191.5 39.5,191.5C 39.9385,195.404 38.2718,197.904 34.5,199C 35.3366,200.011 35.67,201.178 35.5,202.5C 33.2856,202.709 31.619,201.876 30.5,200C 31.3223,197.566 31.6556,195.066 31.5,192.5C 33.5834,191.971 35.4167,190.971 37,189.5C 38.5437,186.829 39.7103,183.996 40.5,181C 42.3302,180.818 43.9969,181.318 45.5,182.5 Z"/></g>
<g><path style="opacity:1" fill="#5ac7d8" d="M 49.5,182.5 C 42.3304,192.67 35.997,203.336 30.5,214.5C 30.6465,211.557 31.3132,208.724 32.5,206C 30.8966,204.919 29.5632,203.419 28.5,201.5C 26.8509,205.182 24.5176,208.182 21.5,210.5C 23.8226,203.847 27.1559,197.847 31.5,192.5C 31.6556,195.066 31.3223,197.566 30.5,200C 31.619,201.876 33.2856,202.709 35.5,202.5C 35.67,201.178 35.3366,200.011 34.5,199C 38.2718,197.904 39.9385,195.404 39.5,191.5C 40.5,191.5 41.5,191.5 42.5,191.5C 42.5,190.167 42.5,188.833 42.5,187.5C 43.5,187.5 44.5,187.5 45.5,187.5C 45.5,185.833 45.5,184.167 45.5,182.5C 46.8333,181.167 48.1667,181.167 49.5,182.5 Z"/></g>
<g><path style="opacity:1" fill="#56c5d9" d="M 476.5,207.5 C 474.5,206.833 472.5,206.167 470.5,205.5C 465.8,203.511 463.466,205.177 463.5,210.5C 465.181,214.558 466.848,218.558 468.5,222.5C 467.833,222.167 467.167,221.833 466.5,221.5C 465.685,220.163 464.518,219.163 463,218.5C 461.36,213.159 461.86,207.992 464.5,203C 462.613,203.423 460.613,203.256 458.5,202.5C 464.349,197.907 470.515,197.574 477,201.5C 479.109,203.861 478.942,205.861 476.5,207.5 Z"/></g>
<g><path style="opacity:1" fill="#72ccdb" d="M 189.5,186.5 C 186.274,199.177 182.274,211.51 177.5,223.5C 177.401,220.763 177.735,218.096 178.5,215.5C 179.167,213.167 179.833,210.833 180.5,208.5C 182.506,204.452 183.84,200.119 184.5,195.5C 186.265,192.877 186.932,189.877 186.5,186.5C 187.5,186.5 188.5,186.5 189.5,186.5 Z"/></g>
<g><path style="opacity:1" fill="#5bc7d8" d="M 326.5,199.5 C 323.004,209.995 319.337,220.328 315.5,230.5C 315.547,225.852 316.547,221.518 318.5,217.5C 319.994,212.887 320.494,208.221 320,203.5C 320.414,203.957 320.914,204.291 321.5,204.5C 322.429,203.311 322.762,201.978 322.5,200.5C 323.222,200.918 323.722,201.584 324,202.5C 324.236,200.881 325.069,199.881 326.5,199.5 Z"/></g>
<g><path style="opacity:1" fill="#9cd8e9" d="M 470.5,205.5 C 472.5,206.167 474.5,206.833 476.5,207.5C 474.085,208.648 472.085,207.982 470.5,205.5 Z"/></g>
<g><path style="opacity:1" fill="#1cbfda" d="M 176.5,188.5 C 176.981,191.522 177.647,194.522 178.5,197.5C 179.478,197.023 180.311,196.357 181,195.5C 181.167,196.167 181.333,196.833 181.5,197.5C 179.51,201.078 179.177,204.745 180.5,208.5C 179.833,210.833 179.167,213.167 178.5,215.5C 178.043,213.227 176.71,211.894 174.5,211.5C 168.566,207.321 167.899,202.321 172.5,196.5C 173.149,198.624 173.983,200.624 175,202.5C 175.791,199.248 175.291,196.248 173.5,193.5C 174.396,191.664 175.396,189.997 176.5,188.5 Z"/></g>
<g><path style="opacity:1" fill="#25c1d9" d="M 322.5,200.5 C 322.762,201.978 322.429,203.311 321.5,204.5C 320.914,204.291 320.414,203.957 320,203.5C 320.494,208.221 319.994,212.887 318.5,217.5C 317.624,217.631 316.957,217.298 316.5,216.5C 317.984,212.884 316.984,211.884 313.5,213.5C 313.5,210.167 313.5,206.833 313.5,203.5C 312.5,203.5 311.5,203.5 310.5,203.5C 311.659,199.849 313.326,196.515 315.5,193.5C 317.282,192.28 319.282,191.614 321.5,191.5C 321.963,194.482 322.296,197.482 322.5,200.5 Z"/></g>
<g><path style="opacity:1" fill="#39c4d7" d="M 177.5,180.5 C 177.599,183.237 177.265,185.904 176.5,188.5C 175.396,189.997 174.396,191.664 173.5,193.5C 175.291,196.248 175.791,199.248 175,202.5C 173.983,200.624 173.149,198.624 172.5,196.5C 167.899,202.321 168.566,207.321 174.5,211.5C 173.963,213.711 172.963,215.711 171.5,217.5C 172.43,219.105 172.43,220.605 171.5,222C 172.357,222.689 173.023,223.522 173.5,224.5C 172.349,226.773 171.349,229.106 170.5,231.5C 167.798,222.294 165.465,222.294 163.5,231.5C 163.657,230.127 163.49,228.793 163,227.5C 160.958,230.94 158.458,233.94 155.5,236.5C 155.343,235.127 155.51,233.793 156,232.5C 158.326,231.187 159.659,229.187 160,226.5C 161.011,225.663 162.178,225.33 163.5,225.5C 163.5,223.167 163.5,220.833 163.5,218.5C 164.5,218.5 165.5,218.5 166.5,218.5C 166.5,219.5 166.5,220.5 166.5,221.5C 167.5,221.5 168.5,221.5 169.5,221.5C 169.679,219.046 169.013,216.879 167.5,215C 168.535,214.747 169.535,213.914 170.5,212.5C 168.053,208.523 166.053,208.856 164.5,213.5C 162.805,214.174 161.138,214.841 159.5,215.5C 166.3,204.233 172.3,192.566 177.5,180.5 Z"/></g>
<g><path style="opacity:0.671" fill="#7adae5" d="M 307.5,209.5 C 307.5,210.5 307.5,211.5 307.5,212.5C 302.5,212.5 297.5,212.5 292.5,212.5C 296.647,211.675 300.981,211.175 305.5,211C 306.044,210.283 306.711,209.783 307.5,209.5 Z"/></g>
<g><path style="opacity:1" fill="#21c1da" d="M 318.5,217.5 C 316.547,221.518 315.547,225.852 315.5,230.5C 315.5,231.5 315.5,232.5 315.5,233.5C 313.53,235.348 311.53,237.348 309.5,239.5C 309.689,236.783 309.356,233.949 308.5,231C 308.759,229.739 309.426,228.739 310.5,228C 309.874,227.25 309.374,226.416 309,225.5C 308.722,226.416 308.222,227.082 307.5,227.5C 307.5,226.833 307.167,226.5 306.5,226.5C 305.932,223.412 305.932,220.412 306.5,217.5C 308.5,216.833 310.5,216.167 312.5,215.5C 313.298,215.043 313.631,214.376 313.5,213.5C 316.984,211.884 317.984,212.884 316.5,216.5C 316.957,217.298 317.624,217.631 318.5,217.5 Z"/></g>
<g><path style="opacity:1" fill="#59c9d7" d="M 401.5,210.5 C 405.399,209.209 409.399,209.209 413.5,210.5C 413.5,211.5 413.5,212.5 413.5,213.5C 408.18,213.426 406.18,216.093 407.5,221.5C 411.97,220.307 414.303,217.307 414.5,212.5C 415.821,219.581 412.821,224.247 405.5,226.5C 405.5,225.5 405.5,224.5 405.5,223.5C 402.287,223.81 399.287,223.477 396.5,222.5C 393.933,220.765 393.933,218.765 396.5,216.5C 399.266,214.871 402.266,214.205 405.5,214.5C 405.354,212.058 406.187,211.391 408,212.5C 408.5,212 409,211.5 409.5,211C 406.854,210.503 404.187,210.336 401.5,210.5 Z M 396.5,222.5 C 396.196,221.85 395.863,221.183 395.5,220.5C 398.36,217.101 402.026,215.434 406.5,215.5C 405.362,220.751 402.028,223.084 396.5,222.5 Z"/></g>
<g><path style="opacity:1" fill="#34c1d9" d="M 174.5,211.5 C 176.71,211.894 178.043,213.227 178.5,215.5C 177.735,218.096 177.401,220.763 177.5,223.5C 174.643,226.806 173.309,230.806 173.5,235.5C 171.359,242.59 169.026,249.59 166.5,256.5C 164.777,256.391 163.777,255.058 163.5,252.5C 161.089,252.137 159.589,253.137 159,255.5C 156.713,253.763 156.213,251.43 157.5,248.5C 159.125,242.619 161.125,236.953 163.5,231.5C 165.465,222.294 167.798,222.294 170.5,231.5C 171.349,229.106 172.349,226.773 173.5,224.5C 173.023,223.522 172.357,222.689 171.5,222C 172.43,220.605 172.43,219.105 171.5,217.5C 172.963,215.711 173.963,213.711 174.5,211.5 Z"/></g>
<g><path style="opacity:1" fill="#44c5d9" d="M 30.5,214.5 C 28.0591,221.476 26.0591,228.476 24.5,235.5C 24.5,234.833 24.5,234.167 24.5,233.5C 24.045,231.633 23.3784,229.8 22.5,228C 23.3219,225.528 23.9886,223.028 24.5,220.5C 23.5,220.5 22.5,220.5 21.5,220.5C 20.2397,225.688 19.2397,231.021 18.5,236.5C 17.6858,234.234 17.1858,231.9 17,229.5C 14.9572,232.592 15.1238,235.592 17.5,238.5C 16.8333,239.167 16.1667,239.833 15.5,240.5C 17.426,246.091 17.426,251.757 15.5,257.5C 15.3057,261.992 17.3057,264.825 21.5,266C 19.1517,267.688 18.9851,269.522 21,271.5C 21.3173,269.699 21.984,269.366 23,270.5C 23.4974,273.146 23.6641,275.813 23.5,278.5C 16.0802,268.908 12.4136,257.908 12.5,245.5C 12.8655,233.034 15.8655,221.368 21.5,210.5C 24.5176,208.182 26.8509,205.182 28.5,201.5C 29.5632,203.419 30.8966,204.919 32.5,206C 31.3132,208.724 30.6465,211.557 30.5,214.5 Z"/></g>
<g><path style="opacity:1" fill="#a6dbdf" d="M 492.5,217.5 C 491.448,215.744 489.781,215.077 487.5,215.5C 488.641,214.661 489.974,213.994 491.5,213.5C 493.534,214.574 493.867,215.907 492.5,217.5 Z"/></g>
<g><path style="opacity:1" fill="#22beda" d="M 310.5,203.5 C 311.5,203.5 312.5,203.5 313.5,203.5C 313.5,206.833 313.5,210.167 313.5,213.5C 313.631,214.376 313.298,215.043 312.5,215.5C 310.5,216.167 308.5,216.833 306.5,217.5C 305.932,220.412 305.932,223.412 306.5,226.5C 305.883,226.389 305.383,226.056 305,225.5C 304.077,226.759 303.243,228.092 302.5,229.5C 301.643,228.264 300.977,226.931 300.5,225.5C 301.529,225.704 302.529,225.204 303.5,224C 301.709,221.894 301.042,219.394 301.5,216.5C 300.167,216.5 298.833,216.5 297.5,216.5C 297.167,216.5 296.833,216.5 296.5,216.5C 294.302,215.835 291.969,215.168 289.5,214.5C 295.768,213.298 301.935,213.631 308,215.5C 309.182,213.656 310.349,211.823 311.5,210C 311.095,209.055 310.428,208.388 309.5,208C 310.38,206.644 310.714,205.144 310.5,203.5 Z"/></g>
<g><path style="opacity:1" fill="#3ec1d7" d="M 310.5,203.5 C 310.714,205.144 310.38,206.644 309.5,208C 310.428,208.388 311.095,209.055 311.5,210C 310.349,211.823 309.182,213.656 308,215.5C 301.935,213.631 295.768,213.298 289.5,214.5C 291.969,215.168 294.302,215.835 296.5,216.5C 288.202,215.16 283.202,218.493 281.5,226.5C 279.286,230.893 277.953,235.56 277.5,240.5C 276.246,242.357 276.246,244.357 277.5,246.5C 275.926,247.631 274.259,247.798 272.5,247C 272.026,245.271 271.026,244.105 269.5,243.5C 268.637,226.91 276.303,216.577 292.5,212.5C 297.5,212.5 302.5,212.5 307.5,212.5C 307.5,211.5 307.5,210.5 307.5,209.5C 307.992,207.181 308.992,205.181 310.5,203.5 Z"/></g>
<g><path style="opacity:0.827" fill="#a3dde6" d="M 360.5,215.5 C 360.735,214.903 361.235,214.57 362,214.5C 363.5,215 365,215.5 366.5,216C 367.252,216.671 367.586,217.504 367.5,218.5C 365.453,216.925 363.119,215.925 360.5,215.5 Z"/></g>
<g><path style="opacity:1" fill="#3cc1d8" d="M 436.5,223.5 C 438.144,224.316 439.31,225.65 440,227.5C 440.499,231.152 440.665,234.818 440.5,238.5C 441.5,238.5 442.5,238.5 443.5,238.5C 443.5,240.167 443.5,241.833 443.5,243.5C 439.755,242.088 437.422,239.421 436.5,235.5C 435.575,236.357 434.908,237.357 434.5,238.5C 433.662,238.158 433.328,237.492 433.5,236.5C 432.122,235.766 430.622,235.099 429,234.5C 428.667,235.167 428.333,235.833 428,236.5C 428.674,234.08 429.507,231.58 430.5,229C 430.519,227.208 430.186,226.708 429.5,227.5C 428.833,227.5 428.5,227.833 428.5,228.5C 427.833,228.5 427.5,228.833 427.5,229.5C 426.833,229.5 426.5,229.833 426.5,230.5C 425.833,230.5 425.5,230.833 425.5,231.5C 424.833,231.5 424.5,231.833 424.5,232.5C 424.167,232.5 423.833,232.5 423.5,232.5C 422.167,233.167 421.167,234.167 420.5,235.5C 418.973,235.427 417.973,236.094 417.5,237.5C 417.167,237.5 416.833,237.5 416.5,237.5C 412.667,238.025 409,239.025 405.5,240.5C 405.281,239.325 405.614,238.325 406.5,237.5C 408.598,237.043 410.264,236.043 411.5,234.5C 416.902,230.606 421.902,226.106 426.5,221C 420.561,206.224 425.561,199.557 441.5,201C 445.82,202.305 447.153,204.971 445.5,209C 444.667,209.167 443.833,209.333 443,209.5C 440.448,208.629 438.114,207.295 436,205.5C 432.719,208.039 431.719,211.372 433,215.5C 434.454,218.071 435.62,220.738 436.5,223.5 Z"/></g>
<g><path style="opacity:1" fill="#67cfd9" d="M 296.5,216.5 C 290.756,218.551 285.756,221.884 281.5,226.5C 283.202,218.493 288.202,215.16 296.5,216.5 Z"/></g>
<g><path style="opacity:1" fill="#41c2d8" d="M 266.5,236.5 C 265.5,236.5 264.5,236.5 263.5,236.5C 262.264,231.933 261.598,227.266 261.5,222.5C 257.833,222.5 254.167,222.5 250.5,222.5C 250.5,223.5 250.5,224.5 250.5,225.5C 250.167,225.5 249.833,225.5 249.5,225.5C 249.714,223.856 249.38,222.356 248.5,221C 246.203,220.982 243.869,221.149 241.5,221.5C 245.619,220.005 249.952,218.839 254.5,218C 262.906,215.367 268.239,218.2 270.5,226.5C 269.711,230.075 268.377,233.408 266.5,236.5 Z"/></g>
<g><path style="opacity:1" fill="#26bddc" d="M 413.5,210.5 C 414.338,210.842 414.672,211.508 414.5,212.5C 414.303,217.307 411.97,220.307 407.5,221.5C 406.18,216.093 408.18,213.426 413.5,213.5C 413.5,212.5 413.5,211.5 413.5,210.5 Z"/></g>
<g><path style="opacity:1" fill="#2fc0da" d="M 458.5,202.5 C 460.613,203.256 462.613,203.423 464.5,203C 461.86,207.992 461.36,213.159 463,218.5C 464.518,219.163 465.685,220.163 466.5,221.5C 465.226,227.26 465.226,233.26 466.5,239.5C 465.935,237.58 464.935,235.913 463.5,234.5C 462.006,233.601 460.506,233.935 459,235.5C 457.855,234.364 456.688,233.364 455.5,232.5C 456.793,230.704 458.293,229.037 460,227.5C 460.483,226.552 460.649,225.552 460.5,224.5C 460.414,223.504 460.748,222.671 461.5,222C 459.862,219.867 459.029,217.367 459,214.5C 458.329,215.252 457.496,215.586 456.5,215.5C 455.359,212.36 455.192,209.027 456,205.5C 456.377,204.058 457.21,203.058 458.5,202.5 Z"/></g>
<g><path style="opacity:1" fill="#22bedc" d="M 220.5,219.5 C 221.5,219.5 222.5,219.5 223.5,219.5C 224.64,222.835 226.64,224.668 229.5,225C 228.372,226.468 227.706,228.135 227.5,230C 228.343,231.935 228.343,233.769 227.5,235.5C 224.962,232.691 223.962,229.357 224.5,225.5C 223.5,225.5 222.5,225.5 221.5,225.5C 222.741,222.995 221.741,221.495 218.5,221C 219.416,220.722 220.082,220.222 220.5,219.5 Z"/></g>
<g><path style="opacity:1" fill="#51c6d8" d="M 487.5,215.5 C 489.781,215.077 491.448,215.744 492.5,217.5C 486.594,220.791 480.594,224.125 474.5,227.5C 474.167,228.333 473.833,229.167 473.5,230C 474.603,233.809 475.603,237.642 476.5,241.5C 476.48,242.726 476.147,243.726 475.5,244.5C 475.048,240.979 474.048,237.646 472.5,234.5C 471.311,233.571 469.978,233.238 468.5,233.5C 469.331,229.755 469.331,226.088 468.5,222.5C 474.898,220.367 481.232,218.034 487.5,215.5 Z"/></g>
<g><path style="opacity:1" fill="#5bc8d9" d="M 460.5,224.5 C 459.735,223.34 458.735,222.34 457.5,221.5C 452.341,223.912 447.341,226.579 442.5,229.5C 442.167,230.167 441.833,230.833 441.5,231.5C 442.467,233.762 443.134,236.095 443.5,238.5C 442.5,238.5 441.5,238.5 440.5,238.5C 440.665,234.818 440.499,231.152 440,227.5C 439.31,225.65 438.144,224.316 436.5,223.5C 443.805,222.182 450.472,219.515 456.5,215.5C 457.496,215.586 458.329,215.252 459,214.5C 459.029,217.367 459.862,219.867 461.5,222C 460.748,222.671 460.414,223.504 460.5,224.5 Z"/></g>
<g><path style="opacity:1" fill="#2bc1da" d="M 155.5,236.5 C 152.619,236.302 150.619,234.802 149.5,232C 149.989,230.862 150.322,229.695 150.5,228.5C 153.117,223.886 156.117,219.553 159.5,215.5C 161.138,214.841 162.805,214.174 164.5,213.5C 166.053,208.856 168.053,208.523 170.5,212.5C 169.535,213.914 168.535,214.747 167.5,215C 169.013,216.879 169.679,219.046 169.5,221.5C 168.5,221.5 167.5,221.5 166.5,221.5C 166.5,220.5 166.5,219.5 166.5,218.5C 165.5,218.5 164.5,218.5 163.5,218.5C 163.5,220.833 163.5,223.167 163.5,225.5C 162.178,225.33 161.011,225.663 160,226.5C 159.659,229.187 158.326,231.187 156,232.5C 155.51,233.793 155.343,235.127 155.5,236.5 Z"/></g>
<g><path style="opacity:1" fill="#49c4d7" d="M 220.5,219.5 C 220.082,220.222 219.416,220.722 218.5,221C 221.741,221.495 222.741,222.995 221.5,225.5C 217.968,225.31 214.635,225.977 211.5,227.5C 210.167,227.5 208.833,227.5 207.5,227.5C 207.5,228.833 207.5,230.167 207.5,231.5C 204.471,234.901 203.138,238.901 203.5,243.5C 201.682,239.238 200.682,234.905 200.5,230.5C 195.892,233.549 195.559,236.882 199.5,240.5C 196.413,244.152 197.08,246.819 201.5,248.5C 201.043,249.298 200.376,249.631 199.5,249.5C 199.167,249.5 198.833,249.5 198.5,249.5C 197.738,247.738 196.404,246.738 194.5,246.5C 192.902,236.504 196.235,228.338 204.5,222C 209.915,221.952 215.248,221.119 220.5,219.5 Z"/></g>
<g><path style="opacity:1" fill="#7bcfdc" d="M 249.5,225.5 C 246.423,228.569 243.756,231.903 241.5,235.5C 241.141,233.234 241.808,231.401 243.5,230C 243.167,229.667 242.833,229.333 242.5,229C 243.754,227.025 246.088,225.858 249.5,225.5 Z"/></g>
<g><path style="opacity:1" fill="#44c4d8" d="M 356.5,216.5 C 356.953,217.458 357.619,218.292 358.5,219C 357.833,219.333 357.167,219.667 356.5,220C 357.658,221.009 358.325,222.342 358.5,224C 358.213,226.174 357.88,228.341 357.5,230.5C 357.36,232.03 356.693,233.03 355.5,233.5C 355.5,233.167 355.5,232.833 355.5,232.5C 356.054,229.438 356.554,226.438 357,223.5C 352.006,226.999 347.173,230.666 342.5,234.5C 342.096,233.244 341.429,232.077 340.5,231C 341.482,228.991 342.815,228.491 344.5,229.5C 345.833,228.833 345.833,228.167 344.5,227.5C 343.232,226.572 341.899,226.405 340.5,227C 339.695,228.972 338.361,230.472 336.5,231.5C 335.833,230.5 335.167,229.5 334.5,228.5C 333.28,229.711 332.113,229.711 331,228.5C 330.405,229.899 330.572,231.232 331.5,232.5C 331.167,232.833 330.833,233.167 330.5,233.5C 329.833,232.5 329.167,231.5 328.5,230.5C 325.351,233.062 323.685,236.395 323.5,240.5C 323.5,240.833 323.5,241.167 323.5,241.5C 309.13,247.129 303.797,242.463 307.5,227.5C 308.222,227.082 308.722,226.416 309,225.5C 309.374,226.416 309.874,227.25 310.5,228C 309.426,228.739 308.759,229.739 308.5,231C 309.356,233.949 309.689,236.783 309.5,239.5C 311.53,237.348 313.53,235.348 315.5,233.5C 315.5,234.5 315.5,235.5 315.5,236.5C 325.582,233.17 332.748,226.503 337,216.5C 339.167,214.536 341.501,214.202 344,215.5C 344.253,218.2 344.253,220.867 344,223.5C 347.655,220.256 351.822,217.922 356.5,216.5 Z"/></g>
<g><path style="opacity:1" fill="#1dbfdb" d="M 24.5,233.5 C 23.7784,233.918 23.2784,234.584 23,235.5C 22.6667,240.833 22.3333,246.167 22,251.5C 20.9132,254.728 18.7465,256.728 15.5,257.5C 17.426,251.757 17.426,246.091 15.5,240.5C 16.1667,239.833 16.8333,239.167 17.5,238.5C 15.1238,235.592 14.9572,232.592 17,229.5C 17.1858,231.9 17.6858,234.234 18.5,236.5C 19.2397,231.021 20.2397,225.688 21.5,220.5C 22.5,220.5 23.5,220.5 24.5,220.5C 23.9886,223.028 23.3219,225.528 22.5,228C 23.3784,229.8 24.045,231.633 24.5,233.5 Z"/></g>
<g><path style="opacity:1" fill="#88d5e2" d="M 211.5,227.5 C 210.5,229.167 209.167,230.5 207.5,231.5C 207.5,230.167 207.5,228.833 207.5,227.5C 208.833,227.5 210.167,227.5 211.5,227.5 Z"/></g>
<g><path style="opacity:1" fill="#82d3de" d="M 177.5,223.5 C 176.739,227.784 175.405,231.784 173.5,235.5C 173.309,230.806 174.643,226.806 177.5,223.5 Z"/></g>
<g><path style="opacity:1" fill="#35c0d7" d="M 249.5,225.5 C 246.088,225.858 243.754,227.025 242.5,229C 242.833,229.333 243.167,229.667 243.5,230C 241.808,231.401 241.141,233.234 241.5,235.5C 240.37,238.197 240.37,240.863 241.5,243.5C 242.568,244.434 243.901,244.768 245.5,244.5C 246.268,248.139 246.934,247.806 247.5,243.5C 250.407,243.575 253.073,244.409 255.5,246C 254.944,246.383 254.611,246.883 254.5,247.5C 253.432,248.434 252.099,248.768 250.5,248.5C 247.15,248.665 243.817,248.498 240.5,248C 238.581,245.206 235.914,243.706 232.5,243.5C 232.768,241.901 232.434,240.568 231.5,239.5C 232.238,232.022 235.571,226.022 241.5,221.5C 243.869,221.149 246.203,220.982 248.5,221C 249.38,222.356 249.714,223.856 249.5,225.5 Z"/></g>
<g><path style="opacity:1" fill="#56c7d8" d="M 223.5,219.5 C 228.582,220.081 231.582,222.914 232.5,228C 230.906,236.028 226.906,242.528 220.5,247.5C 221.132,244.635 222.632,242.302 225,240.5C 225.494,238.866 225.66,237.199 225.5,235.5C 223.833,235.5 222.167,235.5 220.5,235.5C 222.417,232.272 222.751,228.938 221.5,225.5C 222.5,225.5 223.5,225.5 224.5,225.5C 223.962,229.357 224.962,232.691 227.5,235.5C 228.343,233.769 228.343,231.935 227.5,230C 227.706,228.135 228.372,226.468 229.5,225C 226.64,224.668 224.64,222.835 223.5,219.5 Z"/></g>
<g><path style="opacity:1" fill="#22c0d9" d="M 342.5,234.5 C 338.729,233.041 336.729,234.041 336.5,237.5C 335.833,237.167 335.167,236.833 334.5,236.5C 333.948,238.003 333.948,239.669 334.5,241.5C 332.263,242.449 329.929,243.116 327.5,243.5C 327.715,241.821 327.048,240.821 325.5,240.5C 324.833,240.5 324.167,240.5 323.5,240.5C 323.685,236.395 325.351,233.062 328.5,230.5C 329.167,231.5 329.833,232.5 330.5,233.5C 330.833,233.167 331.167,232.833 331.5,232.5C 330.572,231.232 330.405,229.899 331,228.5C 332.113,229.711 333.28,229.711 334.5,228.5C 335.167,229.5 335.833,230.5 336.5,231.5C 338.361,230.472 339.695,228.972 340.5,227C 341.899,226.405 343.232,226.572 344.5,227.5C 345.833,228.167 345.833,228.833 344.5,229.5C 342.815,228.491 341.482,228.991 340.5,231C 341.429,232.077 342.096,233.244 342.5,234.5 Z"/></g>
<g><path style="opacity:1" fill="#2fbfdb" d="M 466.5,221.5 C 467.167,221.833 467.833,222.167 468.5,222.5C 469.331,226.088 469.331,229.755 468.5,233.5C 469.978,233.238 471.311,233.571 472.5,234.5C 474.048,237.646 475.048,240.979 475.5,244.5C 475.443,245.609 475.11,246.609 474.5,247.5C 473.5,247.5 472.5,247.5 471.5,247.5C 471.82,244.102 471.487,240.768 470.5,237.5C 469.585,238.328 468.919,239.328 468.5,240.5C 469.309,242.071 469.643,243.738 469.5,245.5C 466.5,246.167 463.5,246.833 460.5,247.5C 464.358,246.3 466.358,243.633 466.5,239.5C 465.226,233.26 465.226,227.26 466.5,221.5 Z"/></g>
<g><path style="opacity:0.89" fill="#b6e9ed" d="M 390.5,228.5 C 390.107,231.513 390.774,234.18 392.5,236.5C 392.167,236.5 391.833,236.5 391.5,236.5C 389.974,235.508 389.307,234.008 389.5,232C 389.514,230.615 389.848,229.449 390.5,228.5 Z"/></g>
<g><path style="opacity:0.176" fill="#b2fffe" d="M 423.5,232.5 C 423.5,232.833 423.5,233.167 423.5,233.5C 423.027,234.906 422.027,235.573 420.5,235.5C 421.167,234.167 422.167,233.167 423.5,232.5 Z"/></g>
<g><path style="opacity:1" fill="#53c6da" d="M 433.5,236.5 C 426.748,238.912 421.081,242.912 416.5,248.5C 416.167,248.5 415.833,248.5 415.5,248.5C 416.736,246.255 417.402,244.089 417.5,242C 416.207,241.51 414.873,241.343 413.5,241.5C 414.463,240.637 414.463,239.97 413.5,239.5C 406.258,243.211 398.591,244.377 390.5,243C 388.509,242.626 386.842,241.793 385.5,240.5C 389.296,241.3 393.296,241.3 397.5,240.5C 395.151,239.457 393.151,238.124 391.5,236.5C 391.833,236.5 392.167,236.5 392.5,236.5C 399.057,238.056 405.39,237.389 411.5,234.5C 410.264,236.043 408.598,237.043 406.5,237.5C 405.614,238.325 405.281,239.325 405.5,240.5C 409,239.025 412.667,238.025 416.5,237.5C 416.5,238.167 416.833,238.5 417.5,238.5C 418.833,237.833 419.833,236.833 420.5,235.5C 422.027,235.573 423.027,234.906 423.5,233.5C 424.167,233.5 424.5,233.167 424.5,232.5C 425.167,232.5 425.5,232.167 425.5,231.5C 426.167,231.5 426.5,231.167 426.5,230.5C 427.167,230.5 427.5,230.167 427.5,229.5C 428.167,229.5 428.5,229.167 428.5,228.5C 429.167,228.5 429.5,228.167 429.5,227.5C 430.186,226.708 430.519,227.208 430.5,229C 429.507,231.58 428.674,234.08 428,236.5C 428.333,235.833 428.667,235.167 429,234.5C 430.622,235.099 432.122,235.766 433.5,236.5 Z"/></g>
<g><path style="opacity:1" fill="#6dc9da" d="M 342.5,234.5 C 339.632,237.688 336.632,240.855 333.5,244C 330.773,245.636 328.107,245.802 325.5,244.5C 325.5,243.167 325.5,241.833 325.5,240.5C 327.048,240.821 327.715,241.821 327.5,243.5C 329.929,243.116 332.263,242.449 334.5,241.5C 333.948,239.669 333.948,238.003 334.5,236.5C 335.167,236.833 335.833,237.167 336.5,237.5C 336.729,234.041 338.729,233.041 342.5,234.5 Z"/></g>
<g><path style="opacity:1" fill="#39c1d7" d="M 401.5,210.5 C 404.187,210.336 406.854,210.503 409.5,211C 409,211.5 408.5,212 408,212.5C 406.187,211.391 405.354,212.058 405.5,214.5C 402.266,214.205 399.266,214.871 396.5,216.5C 393.933,218.765 393.933,220.765 396.5,222.5C 399.287,223.477 402.287,223.81 405.5,223.5C 405.5,224.5 405.5,225.5 405.5,226.5C 400.619,228.293 395.619,228.959 390.5,228.5C 389.848,229.449 389.514,230.615 389.5,232C 389.307,234.008 389.974,235.508 391.5,236.5C 393.151,238.124 395.151,239.457 397.5,240.5C 393.296,241.3 389.296,241.3 385.5,240.5C 385.027,239.094 384.027,238.427 382.5,238.5C 382.011,237.005 381.345,235.671 380.5,234.5C 376.884,233.093 376.551,231.093 379.5,228.5C 383.173,220.363 389.173,214.53 397.5,211C 398.793,210.51 400.127,210.343 401.5,210.5 Z"/></g>
<g><path style="opacity:0.129" fill="#bcf9ff" d="M 420.5,235.5 C 419.833,236.833 418.833,237.833 417.5,238.5C 417.5,238.167 417.5,237.833 417.5,237.5C 417.973,236.094 418.973,235.427 420.5,235.5 Z"/></g>
<g><path style="opacity:1" fill="#3dc2d9" d="M 150.5,228.5 C 150.322,229.695 149.989,230.862 149.5,232C 150.619,234.802 152.619,236.302 155.5,236.5C 152.253,242.083 148.253,247.083 143.5,251.5C 139.618,251.546 136.952,253.379 135.5,257C 132.89,257.147 130.556,257.981 128.5,259.5C 128.167,259 127.833,258.5 127.5,258C 128.414,256.594 129.08,255.094 129.5,253.5C 129.5,252.833 129.833,252.5 130.5,252.5C 131.906,252.027 132.573,251.027 132.5,249.5C 138.529,242.475 144.529,235.475 150.5,228.5 Z"/></g>
<g><path style="opacity:1" fill="#59c7d8" d="M 379.5,228.5 C 376.551,231.093 376.884,233.093 380.5,234.5C 374.874,238.811 368.54,241.811 361.5,243.5C 355.035,242.235 353.035,238.569 355.5,232.5C 355.5,232.833 355.5,233.167 355.5,233.5C 357.698,242.733 362.032,243.733 368.5,236.5C 368.043,235.702 367.376,235.369 366.5,235.5C 370.635,232.931 374.968,230.597 379.5,228.5 Z"/></g>
<g><path style="opacity:0.82" fill="#aee0ee" d="M 382.5,238.5 C 384.027,238.427 385.027,239.094 385.5,240.5C 383.973,240.573 382.973,239.906 382.5,238.5 Z"/></g>
<g><path style="opacity:1" fill="#33c1da" d="M 360.5,215.5 C 363.119,215.925 365.453,216.925 367.5,218.5C 368.124,218.917 368.457,219.584 368.5,220.5C 367.263,224.711 365.93,228.877 364.5,233C 364.684,234.376 365.351,235.209 366.5,235.5C 367.376,235.369 368.043,235.702 368.5,236.5C 362.032,243.733 357.698,242.733 355.5,233.5C 356.693,233.03 357.36,232.03 357.5,230.5C 357.88,228.341 358.213,226.174 358.5,224C 358.325,222.342 357.658,221.009 356.5,220C 357.167,219.667 357.833,219.333 358.5,219C 357.619,218.292 356.953,217.458 356.5,216.5C 357.568,215.566 358.901,215.232 360.5,215.5 Z"/></g>
<g><path style="opacity:1" fill="#50c7db" d="M 266.5,236.5 C 263.757,241.578 259.757,245.245 254.5,247.5C 254.611,246.883 254.944,246.383 255.5,246C 253.073,244.409 250.407,243.575 247.5,243.5C 246.934,247.806 246.268,248.139 245.5,244.5C 243.901,244.768 242.568,244.434 241.5,243.5C 252.944,242.224 259.111,235.89 260,224.5C 256.726,223.317 253.559,223.65 250.5,225.5C 250.5,224.5 250.5,223.5 250.5,222.5C 254.167,222.5 257.833,222.5 261.5,222.5C 261.598,227.266 262.264,231.933 263.5,236.5C 264.5,236.5 265.5,236.5 266.5,236.5 Z"/></g>
<g><path style="opacity:1" fill="#4fc4d9" d="M 455.5,232.5 C 456.688,233.364 457.855,234.364 459,235.5C 460.506,233.935 462.006,233.601 463.5,234.5C 459.391,237.066 455.391,239.899 451.5,243C 449.393,244.264 448.393,246.097 448.5,248.5C 452.534,248.495 456.534,248.162 460.5,247.5C 459.01,249.28 457.01,249.946 454.5,249.5C 452.167,249.5 449.833,249.5 447.5,249.5C 448.138,246.144 446.804,244.144 443.5,243.5C 443.5,241.833 443.5,240.167 443.5,238.5C 444.117,238.611 444.617,238.944 445,239.5C 448.128,236.526 451.628,234.193 455.5,232.5 Z"/></g>
<g><path style="opacity:1" fill="#46c3d9" d="M 297.5,216.5 C 298.833,216.5 300.167,216.5 301.5,216.5C 301.042,219.394 301.709,221.894 303.5,224C 302.529,225.204 301.529,225.704 300.5,225.5C 300.977,226.931 301.643,228.264 302.5,229.5C 303.243,228.092 304.077,226.759 305,225.5C 305.383,226.056 305.883,226.389 306.5,226.5C 300.612,236.22 292.612,243.72 282.5,249C 278.428,249.956 274.595,249.456 271,247.5C 270.209,246.255 269.709,244.922 269.5,243.5C 271.026,244.105 272.026,245.271 272.5,247C 274.259,247.798 275.926,247.631 277.5,246.5C 276.246,244.357 276.246,242.357 277.5,240.5C 278.122,241.627 278.955,242.627 280,243.5C 287.348,236.817 294.015,229.483 300,221.5C 300.706,219.045 299.873,217.378 297.5,216.5 Z"/></g>
<g><path style="opacity:0.518" fill="#c4ebf9" d="M 323.5,241.5 C 323.5,241.167 323.5,240.833 323.5,240.5C 324.167,240.5 324.833,240.5 325.5,240.5C 325.5,241.833 325.5,243.167 325.5,244.5C 324.833,243.5 324.167,242.5 323.5,241.5 Z"/></g>
<g><path style="opacity:1" fill="#6ad0da" d="M 231.5,239.5 C 232.434,240.568 232.768,241.901 232.5,243.5C 235.914,243.706 238.581,245.206 240.5,248C 243.817,248.498 247.15,248.665 250.5,248.5C 243.665,250.643 237.498,249.31 232,244.5C 231.506,242.866 231.34,241.199 231.5,239.5 Z"/></g>
<g><path style="opacity:0.824" fill="#b2e4ed" d="M 194.5,246.5 C 196.404,246.738 197.738,247.738 198.5,249.5C 196.596,249.262 195.262,248.262 194.5,246.5 Z"/></g>
<g><path style="opacity:1" fill="#40c2d9" d="M 203.5,243.5 C 204.659,245.377 206.326,245.877 208.5,245C 213.576,243.08 217.576,239.914 220.5,235.5C 222.167,235.5 223.833,235.5 225.5,235.5C 225.66,237.199 225.494,238.866 225,240.5C 222.632,242.302 221.132,244.635 220.5,247.5C 213.753,251.809 206.753,252.475 199.5,249.5C 200.376,249.631 201.043,249.298 201.5,248.5C 197.08,246.819 196.413,244.152 199.5,240.5C 195.559,236.882 195.892,233.549 200.5,230.5C 200.682,234.905 201.682,239.238 203.5,243.5 Z"/></g>
<g><path style="opacity:1" fill="#21bed9" d="M 443.5,243.5 C 446.804,244.144 448.138,246.144 447.5,249.5C 449.833,249.5 452.167,249.5 454.5,249.5C 454.389,250.117 454.056,250.617 453.5,251C 450.774,251.182 448.107,251.682 445.5,252.5C 445.863,253.183 446.196,253.85 446.5,254.5C 444.003,254.273 442.336,252.94 441.5,250.5C 439.465,249.959 437.465,249.292 435.5,248.5C 441.375,247.366 441.708,245.699 436.5,243.5C 435.828,242.051 435.161,240.718 434.5,239.5C 434.5,239.167 434.5,238.833 434.5,238.5C 434.908,237.357 435.575,236.357 436.5,235.5C 437.422,239.421 439.755,242.088 443.5,243.5 Z"/></g>
<g><path style="opacity:1" fill="#31c1d8" d="M 474.5,247.5 C 472.244,250.405 469.244,252.072 465.5,252.5C 464.844,251.722 464.011,251.056 463,250.5C 457.829,253.059 452.329,254.392 446.5,254.5C 446.196,253.85 445.863,253.183 445.5,252.5C 448.107,251.682 450.774,251.182 453.5,251C 454.056,250.617 454.389,250.117 454.5,249.5C 457.01,249.946 459.01,249.28 460.5,247.5C 463.5,246.833 466.5,246.167 469.5,245.5C 469.643,243.738 469.309,242.071 468.5,240.5C 468.919,239.328 469.585,238.328 470.5,237.5C 471.487,240.768 471.82,244.102 471.5,247.5C 472.5,247.5 473.5,247.5 474.5,247.5 Z"/></g>
<g><path style="opacity:0.631" fill="#b9e8ef" d="M 132.5,249.5 C 132.573,251.027 131.906,252.027 130.5,252.5C 130.427,250.973 131.094,249.973 132.5,249.5 Z"/></g>
<g><path style="opacity:1" fill="#29bdd7" d="M 413.5,241.5 C 414.873,241.343 416.207,241.51 417.5,242C 417.402,244.089 416.736,246.255 415.5,248.5C 415.821,250.048 416.821,250.715 418.5,250.5C 419.5,250.5 420.5,250.5 421.5,250.5C 425.015,251.428 428.515,251.095 432,249.5C 432.5,249.833 433,250.167 433.5,250.5C 432.833,251.167 432.167,251.833 431.5,252.5C 427.878,253.325 424.211,253.825 420.5,254C 420.957,254.414 421.291,254.914 421.5,255.5C 420.5,255.833 419.5,256.167 418.5,256.5C 416.182,256.003 413.848,255.67 411.5,255.5C 410.783,252.677 409.783,250.01 408.5,247.5C 409.419,244.911 411.086,242.911 413.5,241.5 Z"/></g>
<g><path style="opacity:1" fill="#56c7d9" d="M 434.5,239.5 C 435.161,240.718 435.828,242.051 436.5,243.5C 441.708,245.699 441.375,247.366 435.5,248.5C 437.465,249.292 439.465,249.959 441.5,250.5C 442.336,252.94 444.003,254.273 446.5,254.5C 452.329,254.392 457.829,253.059 463,250.5C 464.011,251.056 464.844,251.722 465.5,252.5C 458.162,255.808 450.496,256.642 442.5,255C 441.601,253.764 440.434,252.93 439,252.5C 430.573,256.483 421.74,257.983 412.5,257C 407.787,255.07 406.453,251.903 408.5,247.5C 409.783,250.01 410.783,252.677 411.5,255.5C 413.848,255.67 416.182,256.003 418.5,256.5C 419.5,256.167 420.5,255.833 421.5,255.5C 421.291,254.914 420.957,254.414 420.5,254C 424.211,253.825 427.878,253.325 431.5,252.5C 432.167,251.833 432.833,251.167 433.5,250.5C 433,250.167 432.5,249.833 432,249.5C 428.515,251.095 425.015,251.428 421.5,250.5C 426.009,249.936 430.175,248.269 434,245.5C 434.495,243.527 434.662,241.527 434.5,239.5 Z"/></g>
<g><path style="opacity:0.424" fill="#befafd" d="M 415.5,248.5 C 415.833,248.5 416.167,248.5 416.5,248.5C 417.167,249.167 417.833,249.833 418.5,250.5C 416.821,250.715 415.821,250.048 415.5,248.5 Z"/></g>
<g><path style="opacity:1" fill="#3bc3d7" d="M 157.5,248.5 C 156.213,251.43 156.713,253.763 159,255.5C 159.589,253.137 161.089,252.137 163.5,252.5C 163.777,255.058 164.777,256.391 166.5,256.5C 167.885,257.614 169.385,258.614 171,259.5C 171.667,260.5 171.667,261.5 171,262.5C 168.48,263.207 165.98,264.04 163.5,265C 161.875,267.095 160.542,269.261 159.5,271.5C 159.745,267.763 160.411,264.097 161.5,260.5C 161.167,259.5 160.833,258.5 160.5,257.5C 160.058,261.462 158.891,265.129 157,268.5C 153.85,270.161 152.35,269.161 152.5,265.5C 155.95,266.244 157.616,264.91 157.5,261.5C 154.67,261.694 152.004,262.361 149.5,263.5C 149.52,265.143 148.853,266.476 147.5,267.5C 148.167,268.5 148.833,269.5 149.5,270.5C 148.306,271.799 147.306,273.132 146.5,274.5C 146.715,272.821 146.048,271.821 144.5,271.5C 141.327,271.401 138.327,272.068 135.5,273.5C 134.833,273.167 134.167,272.833 133.5,272.5C 135.567,271.233 137.234,269.567 138.5,267.5C 142.356,265.592 146.356,263.759 150.5,262C 153.32,257.671 155.654,253.171 157.5,248.5 Z"/></g>
<g><path style="opacity:1" fill="#4ac5da" d="M 143.5,251.5 C 134.267,263.079 123.267,272.412 110.5,279.5C 110.5,278.167 110.5,276.833 110.5,275.5C 118.018,274.56 118.352,272.56 111.5,269.5C 117.177,263.824 123.177,258.491 129.5,253.5C 129.08,255.094 128.414,256.594 127.5,258C 127.833,258.5 128.167,259 128.5,259.5C 130.556,257.981 132.89,257.147 135.5,257C 136.952,253.379 139.618,251.546 143.5,251.5 Z"/></g>
<g><path style="opacity:0.482" fill="#abe3f1" d="M 29.5,269.5 C 30.9063,269.973 31.573,270.973 31.5,272.5C 30.0937,272.027 29.427,271.027 29.5,269.5 Z"/></g>
<g><path style="opacity:1" fill="#32c1da" d="M 24.5,233.5 C 24.5,234.167 24.5,234.833 24.5,235.5C 24.3018,243.534 24.6351,251.534 25.5,259.5C 26.7307,265.061 27.564,270.728 28,276.5C 29.9376,277.86 31.6043,277.527 33,275.5C 34.1711,278.159 36.0044,280.159 38.5,281.5C 36.9547,282.452 35.288,282.785 33.5,282.5C 33.719,283.675 33.3857,284.675 32.5,285.5C 30.0339,282.354 27.0339,280.021 23.5,278.5C 23.6641,275.813 23.4974,273.146 23,270.5C 21.984,269.366 21.3173,269.699 21,271.5C 18.9851,269.522 19.1517,267.688 21.5,266C 17.3057,264.825 15.3057,261.992 15.5,257.5C 18.7465,256.728 20.9132,254.728 22,251.5C 22.3333,246.167 22.6667,240.833 23,235.5C 23.2784,234.584 23.7784,233.918 24.5,233.5 Z"/></g>
<g><path style="opacity:1" fill="#59c5d7" d="M 138.5,267.5 C 137.234,269.567 135.567,271.233 133.5,272.5C 134.167,272.833 134.833,273.167 135.5,273.5C 138.327,272.068 141.327,271.401 144.5,271.5C 138.048,274.56 131.715,277.893 125.5,281.5C 125.539,280.417 125.873,279.417 126.5,278.5C 132.614,275.668 132.614,274.501 126.5,275C 122.731,277.128 119.064,279.295 115.5,281.5C 113.589,284.139 110.922,285.472 107.5,285.5C 116.678,277.736 127.012,271.736 138.5,267.5 Z"/></g>
<g><path style="opacity:1" fill="#40c2d7" d="M 111.5,269.5 C 118.352,272.56 118.018,274.56 110.5,275.5C 110.5,276.833 110.5,278.167 110.5,279.5C 108.508,279.672 106.842,279.005 105.5,277.5C 104.438,278.425 104.438,279.425 105.5,280.5C 103.453,280.489 101.453,280.156 99.5,279.5C 95.4102,281.716 91.0769,283.05 86.5,283.5C 94.9552,279.104 103.289,274.438 111.5,269.5 Z"/></g>
<g><path style="opacity:1" fill="#78cee1" d="M 159.5,271.5 C 158.397,275.497 156.731,279.164 154.5,282.5C 154.784,279.368 155.617,276.368 157,273.5C 157.417,272.244 158.25,271.577 159.5,271.5 Z"/></g>
<g><path style="opacity:1" fill="#23bddb" d="M 159.5,271.5 C 158.25,271.577 157.417,272.244 157,273.5C 155.617,276.368 154.784,279.368 154.5,282.5C 154.5,282.833 154.5,283.167 154.5,283.5C 153.637,284.463 152.97,284.463 152.5,283.5C 153.135,279.338 154.135,275.338 155.5,271.5C 152.279,272.882 149.779,275.215 148,278.5C 147.852,282.225 148.352,285.892 149.5,289.5C 149.415,291.333 148.748,292.666 147.5,293.5C 146.664,290.408 145.997,287.241 145.5,284C 145.744,280.814 146.077,277.647 146.5,274.5C 147.306,273.132 148.306,271.799 149.5,270.5C 148.833,269.5 148.167,268.5 147.5,267.5C 148.853,266.476 149.52,265.143 149.5,263.5C 152.004,262.361 154.67,261.694 157.5,261.5C 157.616,264.91 155.95,266.244 152.5,265.5C 152.35,269.161 153.85,270.161 157,268.5C 158.891,265.129 160.058,261.462 160.5,257.5C 160.833,258.5 161.167,259.5 161.5,260.5C 160.411,264.097 159.745,267.763 159.5,271.5 Z"/></g>
<g><path style="opacity:1" fill="#42c5d8" d="M 154.5,283.5 C 150.615,293.602 145.948,303.269 140.5,312.5C 140.337,310.143 140.503,307.81 141,305.5C 142.018,306.706 142.518,306.373 142.5,304.5C 142.32,303.446 141.987,302.446 141.5,301.5C 144.72,300.397 146.72,297.73 147.5,293.5C 148.748,292.666 149.415,291.333 149.5,289.5C 148.352,285.892 147.852,282.225 148,278.5C 149.779,275.215 152.279,272.882 155.5,271.5C 154.135,275.338 153.135,279.338 152.5,283.5C 152.97,284.463 153.637,284.463 154.5,283.5 Z"/></g>
<g><path style="opacity:1" fill="#50c7d6" d="M 25.5,259.5 C 27.0086,262.678 28.342,266.011 29.5,269.5C 29.427,271.027 30.0937,272.027 31.5,272.5C 38.7545,281.461 48.0878,286.794 59.5,288.5C 54.7863,288.827 50.1196,288.493 45.5,287.5C 42.6664,282.931 39.4998,282.597 36,286.5C 35.5304,287.577 35.6971,288.577 36.5,289.5C 31.256,286.924 26.9227,283.257 23.5,278.5C 27.0339,280.021 30.0339,282.354 32.5,285.5C 33.3857,284.675 33.719,283.675 33.5,282.5C 35.288,282.785 36.9547,282.452 38.5,281.5C 36.0044,280.159 34.1711,278.159 33,275.5C 31.6043,277.527 29.9376,277.86 28,276.5C 27.564,270.728 26.7307,265.061 25.5,259.5 Z"/></g>
<g><path style="opacity:1" fill="#63c9db" d="M 110.5,279.5 C 102.641,285.094 93.9745,289.094 84.5,291.5C 84.8039,290.85 85.1373,290.183 85.5,289.5C 88.5456,288.625 91.5456,287.625 94.5,286.5C 94.2907,285.914 93.9574,285.414 93.5,285C 95.1341,284.506 96.8008,284.34 98.5,284.5C 98.6556,280.865 99.8223,280.532 102,283.5C 103.098,282.033 104.598,281.199 106.5,281C 106.272,280.601 105.938,280.435 105.5,280.5C 104.438,279.425 104.438,278.425 105.5,277.5C 106.842,279.005 108.508,279.672 110.5,279.5 Z"/></g>
<g><path style="opacity:1" fill="#32c1d8" d="M 125.5,281.5 C 123.853,283.326 121.853,284.66 119.5,285.5C 117.42,286.044 115.42,286.878 113.5,288C 112.663,289.011 112.33,290.178 112.5,291.5C 111.5,292.167 110.5,292.833 109.5,293.5C 107.833,293.5 106.167,293.5 104.5,293.5C 104.097,296.406 102.431,298.239 99.5,299C 99.8333,299.333 100.167,299.667 100.5,300C 99.5,300.333 98.5,300.667 97.5,301C 98.2524,301.671 98.5858,302.504 98.5,303.5C 97.8333,304.833 96.8333,305.833 95.5,306.5C 95.0791,304.09 93.7458,302.257 91.5,301C 92.448,300.517 93.448,300.351 94.5,300.5C 94.6287,298.784 94.962,297.117 95.5,295.5C 98.0892,294.581 100.089,292.914 101.5,290.5C 102.891,288.11 104.891,286.443 107.5,285.5C 110.922,285.472 113.589,284.139 115.5,281.5C 119.064,279.295 122.731,277.128 126.5,275C 132.614,274.501 132.614,275.668 126.5,278.5C 125.873,279.417 125.539,280.417 125.5,281.5 Z"/></g>
<g><path style="opacity:1" fill="#80d1db" d="M 119.5,285.5 C 117.393,287.727 115.06,289.727 112.5,291.5C 112.33,290.178 112.663,289.011 113.5,288C 115.42,286.878 117.42,286.044 119.5,285.5 Z"/></g>
<g><path style="opacity:1" fill="#39c1d8" d="M 105.5,280.5 C 105.938,280.435 106.272,280.601 106.5,281C 104.598,281.199 103.098,282.033 102,283.5C 99.8223,280.532 98.6556,280.865 98.5,284.5C 96.8008,284.34 95.1341,284.506 93.5,285C 93.9574,285.414 94.2907,285.914 94.5,286.5C 91.5456,287.625 88.5456,288.625 85.5,289.5C 85.1373,290.183 84.8039,290.85 84.5,291.5C 70.9955,295.721 57.3289,296.221 43.5,293C 40.9309,292.102 38.5976,290.935 36.5,289.5C 35.6971,288.577 35.5304,287.577 36,286.5C 39.4998,282.597 42.6664,282.931 45.5,287.5C 50.1196,288.493 54.7863,288.827 59.5,288.5C 61.1667,288.5 62.8333,288.5 64.5,288.5C 69.544,288.827 74.544,288.494 79.5,287.5C 81.7106,286.34 83.7106,285.007 85.5,283.5C 85.8333,283.5 86.1667,283.5 86.5,283.5C 91.0769,283.05 95.4102,281.716 99.5,279.5C 101.453,280.156 103.453,280.489 105.5,280.5 Z"/></g>
<g><path style="opacity:1" fill="#5fc9d7" d="M 85.5,283.5 C 83.7106,285.007 81.7106,286.34 79.5,287.5C 74.544,288.494 69.544,288.827 64.5,288.5C 71.495,287.336 78.495,285.669 85.5,283.5 Z"/></g>
<g><path style="opacity:0.918" fill="#8cd7e2" d="M 101.5,290.5 C 100.089,292.914 98.0892,294.581 95.5,295.5C 96.9108,293.086 98.9108,291.419 101.5,290.5 Z"/></g>
<g><path style="opacity:1" fill="#30c1d9" d="M 146.5,274.5 C 146.077,277.647 145.744,280.814 145.5,284C 145.997,287.241 146.664,290.408 147.5,293.5C 146.72,297.73 144.72,300.397 141.5,301.5C 141.987,302.446 142.32,303.446 142.5,304.5C 142.518,306.373 142.018,306.706 141,305.5C 140.503,307.81 140.337,310.143 140.5,312.5C 139.069,312.881 138.236,313.881 138,315.5C 136.926,314.382 135.76,313.382 134.5,312.5C 135.022,311.393 135.355,310.226 135.5,309C 134.622,307.2 133.955,305.367 133.5,303.5C 137.657,293.672 141.99,284.006 146.5,274.5 Z"/></g>
<g><path style="opacity:1" fill="#65cbdb" d="M 109.5,293.5 C 105.859,296.805 102.192,300.138 98.5,303.5C 98.5858,302.504 98.2524,301.671 97.5,301C 98.5,300.667 99.5,300.333 100.5,300C 100.167,299.667 99.8333,299.333 99.5,299C 102.431,298.239 104.097,296.406 104.5,293.5C 106.167,293.5 107.833,293.5 109.5,293.5 Z"/></g>
<g><path style="opacity:1" fill="#3bc2da" d="M 95.5,295.5 C 94.962,297.117 94.6287,298.784 94.5,300.5C 93.448,300.351 92.448,300.517 91.5,301C 93.7458,302.257 95.0791,304.09 95.5,306.5C 93.9059,309.764 91.5725,312.431 88.5,314.5C 87.1667,314.5 85.8333,314.5 84.5,314.5C 84.5792,313.07 84.2458,311.736 83.5,310.5C 85.0049,309.158 85.6715,307.492 85.5,305.5C 88.5,301.833 91.8333,298.5 95.5,295.5 Z"/></g>
<g><path style="opacity:1" fill="#4fc5da" d="M 133.5,303.5 C 133.955,305.367 134.622,307.2 135.5,309C 135.355,310.226 135.022,311.393 134.5,312.5C 135.76,313.382 136.926,314.382 138,315.5C 138.236,313.881 139.069,312.881 140.5,312.5C 138.003,318.165 135.003,323.498 131.5,328.5C 132.904,324.93 133.57,321.43 133.5,318C 132.022,315.961 130.022,315.128 127.5,315.5C 128.992,311.182 130.992,307.182 133.5,303.5 Z"/></g>
<g><path style="opacity:1" fill="#55c7d7" d="M 85.5,305.5 C 85.6715,307.492 85.0049,309.158 83.5,310.5C 84.2458,311.736 84.5792,313.07 84.5,314.5C 85.8333,314.5 87.1667,314.5 88.5,314.5C 86.4133,318.344 84.08,322.011 81.5,325.5C 81.2317,322.881 81.565,320.381 82.5,318C 81.8333,317.667 81.1667,317.333 80.5,317C 81.5536,315.612 81.7203,314.112 81,312.5C 78.0644,317.831 75.2311,323.164 72.5,328.5C 71.5,328.5 70.5,328.5 69.5,328.5C 73.2819,319.724 78.6153,312.057 85.5,305.5 Z"/></g>
<g><path style="opacity:1" fill="#33c1d9" d="M 127.5,315.5 C 130.022,315.128 132.022,315.961 133.5,318C 133.57,321.43 132.904,324.93 131.5,328.5C 130.778,328.082 130.278,327.416 130,326.5C 127.882,330.4 126.049,334.4 124.5,338.5C 124.672,339.492 124.338,340.158 123.5,340.5C 121.274,340.273 119.44,340.273 118,340.5C 118.019,342.107 118.185,343.774 118.5,345.5C 116.857,345.48 115.524,346.147 114.5,347.5C 113.167,344.833 111.833,344.833 110.5,347.5C 109.571,346.311 109.238,344.978 109.5,343.5C 111.122,340.545 113.122,337.878 115.5,335.5C 116.906,335.027 117.573,334.027 117.5,332.5C 120.585,326.661 123.918,320.994 127.5,315.5 Z"/></g>
<g><path style="opacity:1" fill="#6fcfda" d="M 81.5,325.5 C 79.8007,328.899 78.134,332.232 76.5,335.5C 76.3163,331.921 76.983,328.587 78.5,325.5C 79.5,325.5 80.5,325.5 81.5,325.5 Z"/></g>
<g><path style="opacity:0.992" fill="#79cedc" d="M 131.5,328.5 C 129.938,332.392 127.605,335.725 124.5,338.5C 126.049,334.4 127.882,330.4 130,326.5C 130.278,327.416 130.778,328.082 131.5,328.5 Z"/></g>
<g><path style="opacity:1" fill="#28c0d9" d="M 81.5,325.5 C 80.5,325.5 79.5,325.5 78.5,325.5C 76.983,328.587 76.3163,331.921 76.5,335.5C 73.5531,343.354 73.8864,351.02 77.5,358.5C 76.0689,358.119 75.2355,357.119 75,355.5C 74.0853,356.328 73.4186,357.328 73,358.5C 72.6667,354.5 72.3333,350.5 72,346.5C 70.3829,347.851 69.2162,349.518 68.5,351.5C 67.5481,349.955 67.2148,348.288 67.5,346.5C 68.552,346.649 69.552,346.483 70.5,346C 69.5442,342.606 69.2108,339.106 69.5,335.5C 69.5,333.167 69.5,330.833 69.5,328.5C 70.5,328.5 71.5,328.5 72.5,328.5C 75.2311,323.164 78.0644,317.831 81,312.5C 81.7203,314.112 81.5536,315.612 80.5,317C 81.1667,317.333 81.8333,317.667 82.5,318C 81.565,320.381 81.2317,322.881 81.5,325.5 Z"/></g>
<g><path style="opacity:0.467" fill="#ade7f1" d="M 117.5,332.5 C 117.573,334.027 116.906,335.027 115.5,335.5C 115.427,333.973 116.094,332.973 117.5,332.5 Z"/></g>
<g><path style="opacity:1" fill="#1ebfdb" d="M 69.5,335.5 C 69.2108,339.106 69.5442,342.606 70.5,346C 69.552,346.483 68.552,346.649 67.5,346.5C 67.2148,348.288 67.5481,349.955 68.5,351.5C 69.2162,349.518 70.3829,347.851 72,346.5C 72.3333,350.5 72.6667,354.5 73,358.5C 73.4186,357.328 74.0853,356.328 75,355.5C 75.2355,357.119 76.0689,358.119 77.5,358.5C 77.7135,360.144 77.3802,361.644 76.5,363C 73.6783,363.428 71.0116,362.928 68.5,361.5C 68.6236,359.048 69.6236,357.048 71.5,355.5C 71.1667,354.833 70.8333,354.167 70.5,353.5C 69.4763,354.853 68.143,355.52 66.5,355.5C 66.3342,350.821 66.5008,346.155 67,341.5C 67.0023,338.949 67.8356,336.949 69.5,335.5 Z"/></g>
<g><path style="opacity:1" fill="#48c4d8" d="M 123.5,340.5 C 120.848,344.482 117.848,348.149 114.5,351.5C 112.876,351.64 111.71,350.973 111,349.5C 110.316,350.784 110.483,351.951 111.5,353C 110.552,353.483 109.552,353.649 108.5,353.5C 108.5,354.5 108.5,355.5 108.5,356.5C 106.853,358.326 104.853,359.66 102.5,360.5C 102.5,359.5 102.5,358.5 102.5,357.5C 99.5,357.5 96.5,357.5 93.5,357.5C 99.1041,353.235 104.437,348.568 109.5,343.5C 109.238,344.978 109.571,346.311 110.5,347.5C 111.833,344.833 113.167,344.833 114.5,347.5C 115.524,346.147 116.857,345.48 118.5,345.5C 118.185,343.774 118.019,342.107 118,340.5C 119.44,340.273 121.274,340.273 123.5,340.5 Z"/></g>
<g><path style="opacity:1" fill="#85d3dd" d="M 114.5,351.5 C 113.109,353.89 111.109,355.557 108.5,356.5C 108.5,355.5 108.5,354.5 108.5,353.5C 109.552,353.649 110.552,353.483 111.5,353C 110.483,351.951 110.316,350.784 111,349.5C 111.71,350.973 112.876,351.64 114.5,351.5 Z"/></g>
<g><path style="opacity:1" fill="#65c7d7" d="M 69.5,328.5 C 69.5,330.833 69.5,333.167 69.5,335.5C 67.8356,336.949 67.0023,338.949 67,341.5C 66.5008,346.155 66.3342,350.821 66.5,355.5C 68.143,355.52 69.4763,354.853 70.5,353.5C 70.8333,354.167 71.1667,354.833 71.5,355.5C 69.6236,357.048 68.6236,359.048 68.5,361.5C 67.2101,360.942 66.3768,359.942 66,358.5C 62.328,347.88 63.4947,337.88 69.5,328.5 Z"/></g>
<g><path style="opacity:1" fill="#3dc1d7" d="M 93.5,357.5 C 96.5,357.5 99.5,357.5 102.5,357.5C 102.5,358.5 102.5,359.5 102.5,360.5C 94.6328,366.835 85.6328,369.001 75.5,367C 72.4048,366.065 70.0714,364.231 68.5,361.5C 71.0116,362.928 73.6783,363.428 76.5,363C 77.3802,361.644 77.7135,360.144 77.5,358.5C 82.9991,361.192 88.3325,360.859 93.5,357.5 Z"/></g>
</svg>
